<svg width="191" height="235" viewBox="0 0 191 235" fill="none" xmlns="http://www.w3.org/2000/svg">
<g id="Union" style="mix-blend-mode:overlay">
<path fill-rule="evenodd" clip-rule="evenodd" d="M47.3125 46.2264L51.1435 0.0192717L75.4733 39.6322C76.7224 41.687 78.4407 43.416 80.4867 44.6768C82.5327 45.9377 84.8481 46.6945 87.2425 46.885L133.394 50.7501L93.8463 75.0854C91.7948 76.3348 90.0692 78.0541 88.8112 80.1019C87.5532 82.1497 86.7988 84.4675 86.6101 86.8648L82.7791 133.072L58.4493 93.459C57.2001 91.4042 55.4819 89.6753 53.4359 88.4144C51.3899 87.1536 49.0745 86.3968 46.6801 86.2063L0.5285 82.3412L40.0763 58.0059C42.1277 56.7565 43.8534 55.0372 45.1114 52.9894C46.3694 50.9416 47.1237 48.6237 47.3125 46.2264ZM189.689 165.864C182.355 135.019 138.153 137.101 88.0348 149.018C38.1869 160.87 -2.5552 178.704 4.77286 209.525C11.94 239.668 54.318 238.365 103.019 227.167L106.427 226.37C156.275 214.518 197.017 196.684 189.689 165.864Z" fill="black"/>
</g>
</svg>
